<svg width="119" height="126" viewBox="0 0 119 126" fill="none" xmlns="http://www.w3.org/2000/svg">
<g clip-path="url(#clip0)">
<path d="M2.91951 119.73C4.39411 119.73 5.58951 120.925 5.58951 122.4C5.58951 123.875 4.39411 125.07 2.91951 125.07C1.44491 125.07 0.249512 123.875 0.249512 122.4C0.249512 120.925 1.44491 119.73 2.91951 119.73Z" stroke="#29406D" stroke-width="0.5" stroke-linecap="round" stroke-linejoin="round"/>
<path d="M2.89947 102.67C2.37097 102.67 1.85436 102.827 1.41506 103.121C0.97577 103.415 0.633561 103.832 0.431772 104.321C0.229983 104.809 0.177698 105.346 0.281534 105.865C0.38537 106.383 0.640647 106.859 1.01505 107.232C1.38946 107.605 1.86614 107.858 2.38473 107.96C2.90332 108.062 3.44049 108.008 3.92819 107.804C4.41589 107.6 4.83219 107.257 5.12437 106.816C5.41655 106.376 5.57145 105.859 5.56947 105.33C5.56682 104.624 5.28435 103.947 4.78391 103.449C4.28348 102.95 3.60587 102.67 2.89947 102.67Z" stroke="#29406D" stroke-width="0.5" stroke-linecap="round" stroke-linejoin="round"/>
<path d="M2.91951 85.5901C4.39411 85.5901 5.58951 86.7855 5.58951 88.2601C5.58951 89.7347 4.39411 90.9301 2.91951 90.9301C1.44491 90.9301 0.249512 89.7347 0.249512 88.2601C0.249512 86.7855 1.44491 85.5901 2.91951 85.5901Z" stroke="#29406D" stroke-width="0.5" stroke-linecap="round" stroke-linejoin="round"/>
<path d="M2.91951 68.5301C4.39411 68.5301 5.58951 69.7255 5.58951 71.2001C5.58951 72.6747 4.39411 73.8701 2.91951 73.8701C1.44491 73.8701 0.249512 72.6747 0.249512 71.2001C0.249512 69.7255 1.44491 68.5301 2.91951 68.5301Z" stroke="#29406D" stroke-width="0.5" stroke-linecap="round" stroke-linejoin="round"/>
<path d="M2.89949 51.46C2.37142 51.46 1.8552 51.6166 1.41612 51.91C0.977045 52.2034 0.634827 52.6204 0.432741 53.1083C0.230655 53.5962 0.177772 54.133 0.280794 54.6509C0.383817 55.1689 0.638116 55.6446 1.01152 56.018C1.38493 56.3914 1.86067 56.6457 2.3786 56.7487C2.89653 56.8518 3.43337 56.7989 3.92125 56.5968C4.40913 56.3947 4.82613 56.0525 5.11951 55.6134C5.41289 55.1743 5.56949 54.6581 5.56949 54.13C5.56949 53.4219 5.28818 52.7428 4.78746 52.2421C4.28674 51.7413 3.60762 51.46 2.89949 51.46Z" stroke="#29406D" stroke-width="0.5" stroke-linecap="round" stroke-linejoin="round"/>
<path d="M2.91951 34.3901C4.39411 34.3901 5.58951 35.5855 5.58951 37.0601C5.58951 38.5347 4.39411 39.7301 2.91951 39.7301C1.44491 39.7301 0.249512 38.5347 0.249512 37.0601C0.249512 35.5855 1.44491 34.3901 2.91951 34.3901Z" stroke="#29406D" stroke-width="0.5" stroke-linecap="round" stroke-linejoin="round"/>
<path d="M2.89949 17.3201C2.37142 17.3201 1.8552 17.4767 1.41612 17.7701C0.977045 18.0635 0.634827 18.4804 0.432741 18.9683C0.230655 19.4562 0.177772 19.9931 0.280794 20.511C0.383817 21.0289 0.638116 21.5047 1.01152 21.8781C1.38493 22.2515 1.86067 22.5058 2.3786 22.6088C2.89653 22.7118 3.43337 22.6589 3.92125 22.4569C4.40913 22.2548 4.82613 21.9125 5.11951 21.4735C5.41289 21.0344 5.56949 20.5182 5.56949 19.9901C5.56949 19.282 5.28818 18.6028 4.78746 18.1021C4.28674 17.6014 3.60762 17.3201 2.89949 17.3201Z" stroke="#29406D" stroke-width="0.5" stroke-linecap="round" stroke-linejoin="round"/>
<path d="M2.89949 0.250087C2.37142 0.250087 1.8552 0.406678 1.41612 0.700061C0.977045 0.993445 0.634827 1.41044 0.432741 1.89832C0.230655 2.3862 0.177772 2.92305 0.280794 3.44097C0.383817 3.9589 0.638116 4.43466 1.01152 4.80806C1.38493 5.18147 1.86067 5.43576 2.3786 5.53878C2.89653 5.64181 3.43337 5.58893 3.92125 5.38684C4.40913 5.18476 4.82613 4.84254 5.11951 4.40346C5.41289 3.96438 5.56949 3.44816 5.56949 2.92009C5.56686 2.21277 5.28472 1.53517 4.78456 1.03502C4.28441 0.53487 3.60681 0.252722 2.89949 0.250087V0.250087Z" stroke="#29406D" stroke-width="0.5" stroke-linecap="round" stroke-linejoin="round"/>
<path d="M19.0296 119.74C18.3232 119.74 17.6456 120.02 17.1452 120.519C16.6447 121.017 16.3623 121.694 16.3596 122.4C16.3596 123.108 16.6409 123.787 17.1417 124.288C17.6424 124.789 18.3215 125.07 19.0296 125.07C19.7378 125.07 20.4169 124.789 20.9176 124.288C21.4183 123.787 21.6996 123.108 21.6996 122.4C21.697 121.694 21.4145 121.017 20.9141 120.519C20.4136 120.02 19.736 119.74 19.0296 119.74V119.74Z" stroke="#29406D" stroke-width="0.5" stroke-linecap="round" stroke-linejoin="round"/>
<path d="M19.0296 102.67C18.5011 102.67 17.9845 102.827 17.5452 103.121C17.1059 103.415 16.7637 103.832 16.5619 104.321C16.3601 104.809 16.3078 105.346 16.4117 105.865C16.5155 106.383 16.7708 106.859 17.1452 107.232C17.5196 107.605 17.9963 107.858 18.5149 107.96C19.0335 108.062 19.5706 108.008 20.0583 107.804C20.546 107.6 20.9623 107.257 21.2545 106.816C21.5467 106.376 21.7016 105.859 21.6996 105.33C21.6969 104.624 21.4145 103.947 20.914 103.449C20.4136 102.95 19.736 102.67 19.0296 102.67V102.67Z" stroke="#29406D" stroke-width="0.5" stroke-linecap="round" stroke-linejoin="round"/>
<path d="M19.0296 85.6001C18.5011 85.6001 17.9845 85.7569 17.5452 86.0507C17.1059 86.3446 16.7637 86.7622 16.5619 87.2506C16.3601 87.7391 16.3078 88.2764 16.4117 88.7946C16.5155 89.3128 16.7708 89.7886 17.1452 90.1616C17.5196 90.5346 17.9963 90.7881 18.5149 90.89C19.0335 90.9919 19.5706 90.9376 20.0583 90.7339C20.546 90.5303 20.9623 90.1865 21.2545 89.7462C21.5467 89.3058 21.7016 88.7886 21.6996 88.2601C21.6969 87.5537 21.4145 86.8771 20.914 86.3785C20.4136 85.88 19.736 85.6001 19.0296 85.6001V85.6001Z" stroke="#29406D" stroke-width="0.5" stroke-linecap="round" stroke-linejoin="round"/>
<path d="M19.0296 68.5301C18.5016 68.5301 17.9853 68.6866 17.5463 68.98C17.1072 69.2734 16.765 69.6904 16.5629 70.1783C16.3608 70.6662 16.3079 71.203 16.4109 71.7209C16.5139 72.2389 16.7683 72.7146 17.1417 73.088C17.5151 73.4614 17.9908 73.7157 18.5087 73.8188C19.0267 73.9218 19.5635 73.8689 20.0514 73.6668C20.5393 73.4647 20.9563 73.1225 21.2497 72.6834C21.5431 72.2444 21.6996 71.7281 21.6996 71.2001C21.6996 70.4919 21.4183 69.8128 20.9176 69.3121C20.4169 68.8114 19.7378 68.5301 19.0296 68.5301Z" stroke="#29406D" stroke-width="0.5" stroke-linecap="round" stroke-linejoin="round"/>
<path d="M19.0296 51.46C18.5016 51.46 17.9853 51.6166 17.5463 51.91C17.1072 52.2034 16.765 52.6204 16.5629 53.1083C16.3608 53.5962 16.3079 54.133 16.4109 54.6509C16.5139 55.1689 16.7683 55.6446 17.1417 56.018C17.5151 56.3914 17.9908 56.6457 18.5087 56.7487C19.0267 56.8518 19.5635 56.7989 20.0514 56.5968C20.5393 56.3947 20.9563 56.0525 21.2497 55.6134C21.5431 55.1743 21.6996 54.6581 21.6996 54.13C21.6996 53.4219 21.4183 52.7428 20.9176 52.2421C20.4169 51.7413 19.7378 51.46 19.0296 51.46Z" stroke="#29406D" stroke-width="0.5" stroke-linecap="round" stroke-linejoin="round"/>
<path d="M19.0296 34.3901C18.5016 34.3901 17.9853 34.5467 17.5463 34.8401C17.1072 35.1335 16.765 35.5505 16.5629 36.0383C16.3608 36.5262 16.3079 37.0631 16.4109 37.581C16.5139 38.0989 16.7683 38.5747 17.1417 38.9481C17.5151 39.3215 17.9908 39.5758 18.5087 39.6788C19.0267 39.7818 19.5635 39.7289 20.0514 39.5269C20.5393 39.3248 20.9563 38.9826 21.2497 38.5435C21.5431 38.1044 21.6996 37.5882 21.6996 37.0601C21.6996 36.352 21.4183 35.6728 20.9176 35.1721C20.4169 34.6714 19.7378 34.3901 19.0296 34.3901Z" stroke="#29406D" stroke-width="0.5" stroke-linecap="round" stroke-linejoin="round"/>
<path d="M19.0296 17.3201C18.5016 17.3201 17.9853 17.4767 17.5463 17.7701C17.1072 18.0635 16.765 18.4804 16.5629 18.9683C16.3608 19.4562 16.3079 19.9931 16.4109 20.511C16.5139 21.0289 16.7683 21.5047 17.1417 21.8781C17.5151 22.2515 17.9908 22.5058 18.5087 22.6088C19.0267 22.7118 19.5635 22.6589 20.0514 22.4569C20.5393 22.2548 20.9563 21.9125 21.2497 21.4735C21.5431 21.0344 21.6996 20.5182 21.6996 19.9901C21.6996 19.282 21.4183 18.6028 20.9176 18.1021C20.4169 17.6014 19.7378 17.3201 19.0296 17.3201Z" stroke="#29406D" stroke-width="0.5" stroke-linecap="round" stroke-linejoin="round"/>
<path d="M35.1397 119.73C36.6143 119.73 37.8097 120.925 37.8097 122.4C37.8097 123.875 36.6143 125.07 35.1397 125.07C33.6651 125.07 32.4697 123.875 32.4697 122.4C32.4697 120.925 33.6651 119.73 35.1397 119.73Z" stroke="#29406D" stroke-width="0.5" stroke-linecap="round" stroke-linejoin="round"/>
<path d="M35.1397 102.67C34.6112 102.67 34.0946 102.827 33.6553 103.121C33.216 103.415 32.8738 103.832 32.672 104.321C32.4702 104.809 32.4179 105.346 32.5218 105.865C32.6256 106.383 32.8809 106.859 33.2553 107.232C33.6297 107.605 34.1064 107.858 34.625 107.96C35.1436 108.062 35.6807 108.008 36.1684 107.804C36.6561 107.6 37.0724 107.257 37.3646 106.816C37.6568 106.376 37.8117 105.859 37.8097 105.33C37.8071 104.624 37.5246 103.947 37.0241 103.449C36.5237 102.95 35.8461 102.67 35.1397 102.67V102.67Z" stroke="#29406D" stroke-width="0.5" stroke-linecap="round" stroke-linejoin="round"/>
<path d="M35.1397 85.5901C36.6143 85.5901 37.8097 86.7855 37.8097 88.2601C37.8097 89.7347 36.6143 90.9301 35.1397 90.9301C33.6651 90.9301 32.4697 89.7347 32.4697 88.2601C32.4697 86.7855 33.6651 85.5901 35.1397 85.5901Z" stroke="#29406D" stroke-width="0.5" stroke-linecap="round" stroke-linejoin="round"/>
<path d="M35.1397 68.5301C36.6143 68.5301 37.8097 69.7255 37.8097 71.2001C37.8097 72.6747 36.6143 73.8701 35.1397 73.8701C33.6651 73.8701 32.4697 72.6747 32.4697 71.2001C32.4697 69.7255 33.6651 68.5301 35.1397 68.5301Z" stroke="#29406D" stroke-width="0.5" stroke-linecap="round" stroke-linejoin="round"/>
<path d="M35.1397 51.46C34.6116 51.46 34.0954 51.6166 33.6563 51.91C33.2173 52.2034 32.8751 52.6204 32.673 53.1083C32.4709 53.5962 32.418 54.133 32.521 54.6509C32.6241 55.1689 32.8783 55.6446 33.2517 56.018C33.6251 56.3914 34.1009 56.6457 34.6188 56.7487C35.1368 56.8518 35.6736 56.7989 36.1615 56.5968C36.6494 56.3947 37.0664 56.0525 37.3597 55.6134C37.6531 55.1743 37.8097 54.6581 37.8097 54.13C37.8097 53.4219 37.5284 52.7428 37.0277 52.2421C36.527 51.7413 35.8478 51.46 35.1397 51.46Z" stroke="#29406D" stroke-width="0.5" stroke-linecap="round" stroke-linejoin="round"/>
<path d="M35.1397 34.3901C36.6143 34.3901 37.8097 35.5855 37.8097 37.0601C37.8097 38.5347 36.6143 39.7301 35.1397 39.7301C33.6651 39.7301 32.4697 38.5347 32.4697 37.0601C32.4697 35.5855 33.6651 34.3901 35.1397 34.3901Z" stroke="#29406D" stroke-width="0.5" stroke-linecap="round" stroke-linejoin="round"/>
<path d="M51.2496 119.74C50.5432 119.74 49.8656 120.02 49.3651 120.519C48.8647 121.017 48.5822 121.694 48.5796 122.4C48.5796 123.108 48.8609 123.787 49.3616 124.288C49.8624 124.789 50.5415 125.07 51.2496 125.07C51.9543 125.065 52.6283 124.781 53.1247 124.281C53.6211 123.781 53.8996 123.105 53.8996 122.4C53.897 121.697 53.6173 121.024 53.1212 120.526C52.625 120.028 51.9525 119.745 51.2496 119.74V119.74Z" stroke="#29406D" stroke-width="0.5" stroke-linecap="round" stroke-linejoin="round"/>
<path d="M51.2496 102.67C50.7202 102.666 50.2016 102.82 49.7597 103.111C49.3178 103.402 48.9725 103.819 48.7676 104.307C48.5628 104.795 48.5076 105.333 48.6092 105.852C48.7107 106.372 48.9644 106.849 49.338 107.224C49.7116 107.599 50.1883 107.855 50.7074 107.958C51.2265 108.062 51.7647 108.009 52.2536 107.806C52.7425 107.603 53.1599 107.259 53.453 106.818C53.7461 106.377 53.9015 105.859 53.8996 105.33C53.8969 104.627 53.6172 103.954 53.1211 103.456C52.625 102.958 51.9525 102.675 51.2496 102.67Z" stroke="#29406D" stroke-width="0.5" stroke-linecap="round" stroke-linejoin="round"/>
<path d="M51.2496 85.6001C50.7202 85.5961 50.2016 85.7496 49.7597 86.041C49.3178 86.3324 48.9725 86.7486 48.7676 87.2367C48.5628 87.7248 48.5076 88.2628 48.6092 88.7823C48.7107 89.3018 48.9644 89.7794 49.338 90.1544C49.7116 90.5294 50.1883 90.7849 50.7074 90.8884C51.2265 90.992 51.7647 90.9388 52.2536 90.7358C52.7425 90.5328 53.1599 90.189 53.453 89.7482C53.7461 89.3074 53.9015 88.7894 53.8996 88.2601C53.8969 87.5571 53.6172 86.8836 53.1211 86.3856C52.625 85.8876 51.9525 85.6053 51.2496 85.6001V85.6001Z" stroke="#29406D" stroke-width="0.5" stroke-linecap="round" stroke-linejoin="round"/>
<path d="M51.2496 68.5301C50.7207 68.5261 50.2025 68.6793 49.7608 68.9703C49.3191 69.2613 48.9737 69.6769 48.7686 70.1644C48.5634 70.6519 48.5077 71.1894 48.6085 71.7086C48.7092 72.2278 48.9619 72.7054 49.3345 73.0809C49.7071 73.4563 50.1828 73.7126 50.7013 73.8172C51.2197 73.9219 51.7576 73.8702 52.2466 73.6687C52.7357 73.4672 53.1539 73.125 53.4482 72.6855C53.7424 72.246 53.8996 71.729 53.8996 71.2001C53.8996 70.4954 53.621 69.8193 53.1246 69.3191C52.6282 68.819 51.9542 68.5353 51.2496 68.5301V68.5301Z" stroke="#29406D" stroke-width="0.5" stroke-linecap="round" stroke-linejoin="round"/>
<path d="M51.2496 51.4601C50.7207 51.4561 50.2025 51.6093 49.7608 51.9003C49.3191 52.1912 48.9737 52.6068 48.7686 53.0944C48.5634 53.5819 48.5077 54.1193 48.6085 54.6386C48.7092 55.1578 48.9619 55.6354 49.3345 56.0108C49.7071 56.3863 50.1828 56.6425 50.7013 56.7472C51.2197 56.8519 51.7576 56.8002 52.2466 56.5987C52.7357 56.3972 53.1539 56.055 53.4482 55.6155C53.7424 55.176 53.8996 54.659 53.8996 54.1301C53.8996 53.4254 53.621 52.7493 53.1246 52.2491C52.6282 51.749 51.9542 51.4653 51.2496 51.4601Z" stroke="#29406D" stroke-width="0.5" stroke-linecap="round" stroke-linejoin="round"/>
<path d="M67.3595 119.73C68.8341 119.73 70.0294 120.925 70.0294 122.4C70.0294 123.875 68.8341 125.07 67.3595 125.07C65.8849 125.07 64.6895 123.875 64.6895 122.4C64.6895 120.925 65.8849 119.73 67.3595 119.73Z" stroke="#29406D" stroke-width="0.5" stroke-linecap="round" stroke-linejoin="round"/>
<path d="M67.3594 102.67C66.8309 102.67 66.3143 102.827 65.875 103.121C65.4357 103.415 65.0935 103.832 64.8917 104.321C64.6899 104.809 64.6377 105.346 64.7415 105.865C64.8453 106.383 65.1006 106.859 65.475 107.232C65.8494 107.605 66.3261 107.858 66.8447 107.96C67.3633 108.062 67.9004 108.008 68.3881 107.804C68.8758 107.6 69.2922 107.257 69.5843 106.816C69.8765 106.376 70.0314 105.859 70.0294 105.33C70.0268 104.624 69.7443 103.947 69.2439 103.449C68.7434 102.95 68.0658 102.67 67.3594 102.67V102.67Z" stroke="#29406D" stroke-width="0.5" stroke-linecap="round" stroke-linejoin="round"/>
<path d="M67.3595 85.5901C68.8341 85.5901 70.0294 86.7855 70.0294 88.2601C70.0294 89.7347 68.8341 90.9301 67.3595 90.9301C65.8849 90.9301 64.6895 89.7347 64.6895 88.2601C64.6895 86.7855 65.8849 85.5901 67.3595 85.5901Z" stroke="#29406D" stroke-width="0.5" stroke-linecap="round" stroke-linejoin="round"/>
<path d="M67.3595 68.5301C68.8341 68.5301 70.0294 69.7255 70.0294 71.2001C70.0294 72.6747 68.8341 73.8701 67.3595 73.8701C65.8849 73.8701 64.6895 72.6747 64.6895 71.2001C64.6895 69.7255 65.8849 68.5301 67.3595 68.5301Z" stroke="#29406D" stroke-width="0.5" stroke-linecap="round" stroke-linejoin="round"/>
<path d="M83.4693 119.74C82.7629 119.74 82.0853 120.02 81.5849 120.519C81.0844 121.017 80.802 121.694 80.7993 122.4C80.7993 123.108 81.0806 123.787 81.5814 124.288C82.0821 124.789 82.7612 125.07 83.4693 125.07C83.8203 125.071 84.1681 125.003 84.4926 124.87C84.8172 124.736 85.1121 124.539 85.3603 124.291C85.6085 124.043 85.8051 123.748 85.9388 123.423C86.0725 123.099 86.1406 122.751 86.1393 122.4C86.1393 122.05 86.0702 121.703 85.9359 121.38C85.8016 121.056 85.6048 120.763 85.3567 120.516C85.1086 120.268 84.8142 120.073 84.4903 119.94C84.1664 119.807 83.8195 119.739 83.4693 119.74V119.74Z" stroke="#29406D" stroke-width="0.5" stroke-linecap="round" stroke-linejoin="round"/>
<path d="M83.4693 102.67C82.9408 102.67 82.4242 102.827 81.9849 103.121C81.5456 103.415 81.2034 103.832 81.0016 104.321C80.7998 104.809 80.7475 105.346 80.8514 105.865C80.9552 106.383 81.2105 106.859 81.5849 107.232C81.9593 107.605 82.436 107.858 82.9546 107.96C83.4732 108.062 84.0103 108.008 84.498 107.804C84.9857 107.6 85.402 107.257 85.6942 106.816C85.9864 106.376 86.1413 105.859 86.1393 105.33C86.1366 104.624 85.8542 103.947 85.3537 103.449C84.8533 102.95 84.1757 102.67 83.4693 102.67V102.67Z" stroke="#29406D" stroke-width="0.5" stroke-linecap="round" stroke-linejoin="round"/>
<path d="M83.4693 85.6001C82.9408 85.6001 82.4242 85.7569 81.9849 86.0507C81.5456 86.3446 81.2034 86.7622 81.0016 87.2506C80.7998 87.7391 80.7475 88.2764 80.8514 88.7946C80.9552 89.3128 81.2105 89.7886 81.5849 90.1616C81.9593 90.5346 82.436 90.7881 82.9546 90.89C83.4732 90.9919 84.0103 90.9376 84.498 90.7339C84.9857 90.5303 85.402 90.1865 85.6942 89.7462C85.9864 89.3058 86.1413 88.7886 86.1393 88.2601C86.1366 87.5537 85.8542 86.8771 85.3537 86.3785C84.8533 85.88 84.1757 85.6001 83.4693 85.6001V85.6001Z" stroke="#29406D" stroke-width="0.5" stroke-linecap="round" stroke-linejoin="round"/>
<path d="M99.5794 119.74C99.2284 119.737 98.8804 119.804 98.5553 119.937C98.2303 120.069 97.9347 120.265 97.6856 120.512C97.4365 120.759 97.2387 121.053 97.1038 121.377C96.9689 121.702 96.8994 122.049 96.8994 122.4C96.8981 122.75 96.966 123.097 97.099 123.421C97.2321 123.745 97.4278 124.039 97.675 124.287C97.9221 124.535 98.2158 124.732 98.5392 124.867C98.8626 125.001 99.2093 125.07 99.5594 125.07C99.9104 125.071 100.258 125.003 100.583 124.87C100.907 124.736 101.202 124.539 101.45 124.291C101.699 124.043 101.895 123.748 102.029 123.423C102.163 123.099 102.231 122.751 102.229 122.4C102.229 121.696 101.951 121.021 101.454 120.523C100.957 120.024 100.283 119.743 99.5794 119.74V119.74Z" stroke="#29406D" stroke-width="0.5" stroke-linecap="round" stroke-linejoin="round"/>
<path d="M99.5796 102.67C99.0511 102.67 98.5345 102.827 98.0952 103.121C97.6559 103.415 97.3137 103.832 97.1119 104.321C96.9102 104.809 96.8579 105.346 96.9617 105.865C97.0655 106.383 97.3208 106.859 97.6952 107.232C98.0696 107.605 98.5463 107.858 99.0649 107.96C99.5835 108.062 100.121 108.008 100.608 107.804C101.096 107.6 101.512 107.257 101.805 106.816C102.097 106.376 102.252 105.859 102.25 105.33C102.25 104.98 102.181 104.633 102.046 104.31C101.912 103.986 101.715 103.693 101.467 103.446C101.219 103.198 100.925 103.003 100.601 102.87C100.277 102.737 99.9298 102.669 99.5796 102.67Z" stroke="#29406D" stroke-width="0.5" stroke-linecap="round" stroke-linejoin="round"/>
<path d="M115.689 119.74C114.984 119.74 114.307 120.02 113.808 120.519C113.31 121.018 113.029 121.695 113.029 122.4C113.028 122.75 113.096 123.097 113.229 123.421C113.362 123.745 113.558 124.039 113.805 124.287C114.052 124.535 114.346 124.732 114.669 124.867C114.992 125.001 115.339 125.07 115.689 125.07C116.04 125.071 116.388 125.003 116.713 124.87C117.037 124.736 117.332 124.539 117.58 124.291C117.828 124.043 118.025 123.748 118.159 123.423C118.292 123.099 118.361 122.751 118.359 122.4C118.359 122.05 118.29 121.703 118.156 121.38C118.022 121.056 117.825 120.763 117.577 120.516C117.329 120.268 117.034 120.073 116.71 119.94C116.386 119.807 116.039 119.739 115.689 119.74V119.74Z" stroke="#29406D" stroke-width="0.5" stroke-linecap="round" stroke-linejoin="round"/>
</g>
<defs>
<clipPath id="clip0">
<rect width="118.61" height="125.32" fill="white" transform="matrix(1 0 0 -1 -0.000488281 125.32)"/>
</clipPath>
</defs>
</svg>
