<svg width="119" height="126" viewBox="0 0 119 126" fill="none" xmlns="http://www.w3.org/2000/svg">
<g clip-path="url(#clip0)">
<path d="M115.69 5.59C114.215 5.59 113.02 4.3946 113.02 2.92C113.02 1.4454 114.215 0.25 115.69 0.25C117.164 0.25 118.36 1.4454 118.36 2.92C118.36 4.3946 117.164 5.59 115.69 5.59Z" stroke="#29406D" stroke-width="0.5" stroke-linecap="round" stroke-linejoin="round"/>
<path d="M115.71 22.93C116.238 22.93 116.755 22.7731 117.194 22.4793C117.634 22.1855 117.976 21.7679 118.178 21.2794C118.379 20.791 118.432 20.2536 118.328 19.7354C118.224 19.2172 117.969 18.7415 117.594 18.3685C117.22 17.9955 116.743 17.742 116.225 17.6401C115.706 17.5382 115.169 17.5925 114.681 17.7961C114.193 17.9997 113.777 18.3435 113.485 18.7839C113.193 19.2243 113.038 19.7415 113.04 20.27C113.043 20.9764 113.325 21.653 113.825 22.1515C114.326 22.6501 115.004 22.93 115.71 22.93Z" stroke="#29406D" stroke-width="0.5" stroke-linecap="round" stroke-linejoin="round"/>
<path d="M115.69 40.2801C114.215 40.2801 113.02 39.0847 113.02 37.6101C113.02 36.1355 114.215 34.9401 115.69 34.9401C117.164 34.9401 118.36 36.1355 118.36 37.6101C118.36 39.0847 117.164 40.2801 115.69 40.2801Z" stroke="#29406D" stroke-width="0.5" stroke-linecap="round" stroke-linejoin="round"/>
<path d="M115.69 57.6201C114.215 57.6201 113.02 56.4247 113.02 54.9501C113.02 53.4755 114.215 52.2801 115.69 52.2801C117.164 52.2801 118.36 53.4755 118.36 54.9501C118.36 56.4247 117.164 57.6201 115.69 57.6201Z" stroke="#29406D" stroke-width="0.5" stroke-linecap="round" stroke-linejoin="round"/>
<path d="M115.71 74.9601C116.238 74.9601 116.754 74.8035 117.193 74.5101C117.632 74.2168 117.975 73.7998 118.177 73.3119C118.379 72.824 118.432 72.2872 118.329 71.7692C118.226 71.2513 117.971 70.7755 117.598 70.4021C117.224 70.0287 116.749 69.7744 116.231 69.6714C115.713 69.5684 115.176 69.6213 114.688 69.8234C114.2 70.0254 113.783 70.3677 113.49 70.8067C113.196 71.2458 113.04 71.762 113.04 72.2901C113.04 72.9982 113.321 73.6774 113.822 74.1781C114.323 74.6788 115.002 74.9601 115.71 74.9601Z" stroke="#29406D" stroke-width="0.5" stroke-linecap="round" stroke-linejoin="round"/>
<path d="M115.69 92.3002C114.215 92.3002 113.02 91.1048 113.02 89.6302C113.02 88.1556 114.215 86.9602 115.69 86.9602C117.164 86.9602 118.36 88.1556 118.36 89.6302C118.36 91.1048 117.164 92.3002 115.69 92.3002Z" stroke="#29406D" stroke-width="0.5" stroke-linecap="round" stroke-linejoin="round"/>
<path d="M115.71 109.64C116.238 109.64 116.754 109.484 117.193 109.19C117.632 108.897 117.975 108.48 118.177 107.992C118.379 107.504 118.432 106.967 118.329 106.449C118.226 105.931 117.971 105.456 117.598 105.082C117.224 104.709 116.749 104.455 116.231 104.352C115.713 104.248 115.176 104.301 114.688 104.503C114.2 104.706 113.783 105.048 113.49 105.487C113.196 105.926 113.04 106.442 113.04 106.97C113.04 107.678 113.321 108.357 113.822 108.858C114.323 109.359 115.002 109.64 115.71 109.64Z" stroke="#29406D" stroke-width="0.5" stroke-linecap="round" stroke-linejoin="round"/>
<path d="M115.71 126.98C116.238 126.98 116.754 126.824 117.193 126.53C117.632 126.237 117.975 125.82 118.177 125.332C118.379 124.844 118.432 124.307 118.329 123.789C118.226 123.271 117.971 122.796 117.598 122.422C117.224 122.049 116.749 121.795 116.231 121.692C115.713 121.588 115.176 121.641 114.688 121.843C114.2 122.046 113.783 122.388 113.49 122.827C113.196 123.266 113.04 123.782 113.04 124.31C113.043 125.018 113.325 125.695 113.825 126.195C114.325 126.695 115.003 126.978 115.71 126.98V126.98Z" stroke="#29406D" stroke-width="0.5" stroke-linecap="round" stroke-linejoin="round"/>
<path d="M99.3498 5.58C100.056 5.58 100.734 5.30008 101.234 4.80151C101.735 4.30295 102.017 3.62639 102.02 2.92C102.02 2.21187 101.738 1.53275 101.238 1.03202C100.737 0.531303 100.058 0.25 99.3498 0.25C98.6416 0.25 97.9625 0.531303 97.4618 1.03202C96.9611 1.53275 96.6798 2.21187 96.6798 2.92C96.6824 3.62639 96.9649 4.30295 97.4653 4.80151C97.9658 5.30008 98.6434 5.58 99.3498 5.58V5.58Z" stroke="#29406D" stroke-width="0.5" stroke-linecap="round" stroke-linejoin="round"/>
<path d="M99.3698 22.93C99.8983 22.93 100.415 22.7731 100.854 22.4793C101.294 22.1855 101.636 21.7679 101.838 21.2794C102.039 20.791 102.092 20.2536 101.988 19.7354C101.884 19.2172 101.629 18.7415 101.254 18.3685C100.88 17.9955 100.403 17.742 99.8845 17.6401C99.366 17.5382 98.8288 17.5925 98.3411 17.7961C97.8534 17.9997 97.4371 18.3435 97.1449 18.7839C96.8527 19.2243 96.6978 19.7415 96.6998 20.27C96.7025 20.9764 96.9849 21.653 97.4854 22.1515C97.9858 22.6501 98.6634 22.93 99.3698 22.93V22.93Z" stroke="#29406D" stroke-width="0.5" stroke-linecap="round" stroke-linejoin="round"/>
<path d="M99.3498 40.2701C99.8783 40.2701 100.395 40.1132 100.834 39.8194C101.273 39.5256 101.616 39.108 101.817 38.6195C102.019 38.131 102.072 37.5937 101.968 37.0755C101.864 36.5573 101.609 36.0816 101.234 35.7086C100.86 35.3356 100.383 35.0821 99.8645 34.9802C99.3459 34.8783 98.8088 34.9326 98.3211 35.1362C97.8334 35.3398 97.4171 35.6836 97.1249 36.124C96.8327 36.5644 96.6778 37.0816 96.6798 37.6101C96.6824 38.3165 96.9649 38.993 97.4654 39.4916C97.9658 39.9901 98.6434 40.2701 99.3498 40.2701V40.2701Z" stroke="#29406D" stroke-width="0.5" stroke-linecap="round" stroke-linejoin="round"/>
<path d="M99.3498 57.6201C99.8778 57.6201 100.394 57.4635 100.833 57.1701C101.272 56.8767 101.614 56.4597 101.817 55.9718C102.019 55.4839 102.071 54.9471 101.968 54.4292C101.865 53.9112 101.611 53.4355 101.238 53.0621C100.864 52.6887 100.389 52.4344 99.8707 52.3314C99.3527 52.2283 98.8159 52.2812 98.328 52.4833C97.8401 52.6854 97.4231 53.0276 97.1297 53.4667C96.8363 53.9058 96.6798 54.422 96.6798 54.9501C96.6798 55.6582 96.9611 56.3373 97.4618 56.838C97.9625 57.3388 98.6416 57.6201 99.3498 57.6201Z" stroke="#29406D" stroke-width="0.5" stroke-linecap="round" stroke-linejoin="round"/>
<path d="M99.3698 74.9601C99.8979 74.9601 100.414 74.8035 100.853 74.5101C101.292 74.2168 101.634 73.7998 101.837 73.3119C102.039 72.824 102.092 72.2872 101.988 71.7692C101.885 71.2513 101.631 70.7755 101.258 70.4021C100.884 70.0287 100.409 69.7744 99.8907 69.6714C99.3728 69.5684 98.8359 69.6213 98.348 69.8234C97.8601 70.0254 97.4431 70.3677 97.1497 70.8067C96.8564 71.2458 96.6998 71.762 96.6998 72.2901C96.6998 72.9982 96.9811 73.6774 97.4818 74.1781C97.9825 74.6788 98.6617 74.9601 99.3698 74.9601Z" stroke="#29406D" stroke-width="0.5" stroke-linecap="round" stroke-linejoin="round"/>
<path d="M99.3498 92.3002C99.8778 92.3002 100.394 92.1436 100.833 91.8502C101.272 91.5568 101.614 91.1399 101.817 90.652C102.019 90.1641 102.071 89.6272 101.968 89.1093C101.865 88.5914 101.611 88.1156 101.238 87.7422C100.864 87.3688 100.389 87.1145 99.8707 87.0115C99.3527 86.9085 98.8159 86.9614 98.328 87.1634C97.8401 87.3655 97.4231 87.7078 97.1297 88.1468C96.8363 88.5859 96.6798 89.1021 96.6798 89.6302C96.6798 90.3383 96.9611 91.0175 97.4618 91.5182C97.9625 92.0189 98.6416 92.3002 99.3498 92.3002Z" stroke="#29406D" stroke-width="0.5" stroke-linecap="round" stroke-linejoin="round"/>
<path d="M99.3698 109.64C99.8979 109.64 100.414 109.484 100.853 109.19C101.292 108.897 101.634 108.48 101.837 107.992C102.039 107.504 102.092 106.967 101.988 106.449C101.885 105.931 101.631 105.456 101.258 105.082C100.884 104.709 100.409 104.455 99.8907 104.352C99.3728 104.248 98.8359 104.301 98.348 104.503C97.8601 104.706 97.4431 105.048 97.1497 105.487C96.8564 105.926 96.6998 106.442 96.6998 106.97C96.6998 107.678 96.9811 108.357 97.4818 108.858C97.9825 109.359 98.6617 109.64 99.3698 109.64Z" stroke="#29406D" stroke-width="0.5" stroke-linecap="round" stroke-linejoin="round"/>
<path d="M83.0097 5.59C81.5351 5.59 80.3397 4.3946 80.3397 2.92C80.3397 1.4454 81.5351 0.25 83.0097 0.25C84.4843 0.25 85.6797 1.4454 85.6797 2.92C85.6797 4.3946 84.4843 5.59 83.0097 5.59Z" stroke="#29406D" stroke-width="0.5" stroke-linecap="round" stroke-linejoin="round"/>
<path d="M83.0297 22.93C83.5582 22.93 84.0749 22.7731 84.5142 22.4793C84.9534 22.1855 85.2956 21.7679 85.4974 21.2794C85.6992 20.791 85.7515 20.2536 85.6477 19.7354C85.5438 19.2172 85.2886 18.7415 84.9141 18.3685C84.5397 17.9955 84.063 17.742 83.5445 17.6401C83.0259 17.5382 82.4887 17.5925 82.001 17.7961C81.5133 17.9997 81.097 18.3435 80.8048 18.7839C80.5127 19.2243 80.3578 19.7415 80.3597 20.27C80.3624 20.9764 80.6448 21.653 81.1453 22.1515C81.6457 22.6501 82.3233 22.93 83.0297 22.93V22.93Z" stroke="#29406D" stroke-width="0.5" stroke-linecap="round" stroke-linejoin="round"/>
<path d="M83.0097 40.2801C81.5351 40.2801 80.3397 39.0847 80.3397 37.6101C80.3397 36.1355 81.5351 34.9401 83.0097 34.9401C84.4843 34.9401 85.6797 36.1355 85.6797 37.6101C85.6797 39.0847 84.4843 40.2801 83.0097 40.2801Z" stroke="#29406D" stroke-width="0.5" stroke-linecap="round" stroke-linejoin="round"/>
<path d="M83.0097 57.6201C81.5351 57.6201 80.3397 56.4247 80.3397 54.9501C80.3397 53.4755 81.5351 52.2801 83.0097 52.2801C84.4843 52.2801 85.6797 53.4755 85.6797 54.9501C85.6797 56.4247 84.4843 57.6201 83.0097 57.6201Z" stroke="#29406D" stroke-width="0.5" stroke-linecap="round" stroke-linejoin="round"/>
<path d="M83.0297 74.9601C83.5578 74.9601 84.074 74.8035 84.5131 74.5101C84.9522 74.2168 85.2944 73.7998 85.4965 73.3119C85.6985 72.824 85.7514 72.2872 85.6484 71.7692C85.5454 71.2513 85.2911 70.7755 84.9177 70.4021C84.5443 70.0287 84.0685 69.7744 83.5506 69.6714C83.0327 69.5684 82.4958 69.6213 82.0079 69.8234C81.5201 70.0254 81.1031 70.3677 80.8097 70.8067C80.5163 71.2458 80.3597 71.762 80.3597 72.2901C80.3597 72.9982 80.641 73.6774 81.1418 74.1781C81.6425 74.6788 82.3216 74.9601 83.0297 74.9601Z" stroke="#29406D" stroke-width="0.5" stroke-linecap="round" stroke-linejoin="round"/>
<path d="M83.0097 92.3002C81.5351 92.3002 80.3397 91.1048 80.3397 89.6302C80.3397 88.1556 81.5351 86.9602 83.0097 86.9602C84.4843 86.9602 85.6797 88.1556 85.6797 89.6302C85.6797 91.1048 84.4843 92.3002 83.0097 92.3002Z" stroke="#29406D" stroke-width="0.5" stroke-linecap="round" stroke-linejoin="round"/>
<path d="M66.6696 5.58C67.376 5.58 68.0536 5.30008 68.554 4.80151C69.0545 4.30295 69.337 3.62639 69.3396 2.92C69.3396 2.21187 69.0583 1.53275 68.5576 1.03202C68.0568 0.531303 67.3777 0.25 66.6696 0.25C65.9649 0.255278 65.2909 0.53891 64.7945 1.03906C64.2981 1.53921 64.0196 2.21532 64.0196 2.92C64.0222 3.62294 64.3019 4.2965 64.798 4.79449C65.2942 5.29249 65.9667 5.57474 66.6696 5.58V5.58Z" stroke="#29406D" stroke-width="0.5" stroke-linecap="round" stroke-linejoin="round"/>
<path d="M66.6696 22.93C67.199 22.934 67.7175 22.7805 68.1595 22.4891C68.6014 22.1977 68.9467 21.7815 69.1516 21.2934C69.3564 20.8053 69.4116 20.2673 69.31 19.7478C69.2084 19.2283 68.9548 18.7507 68.5812 18.3757C68.2076 18.0006 67.7309 17.7452 67.2118 17.6416C66.6926 17.5381 66.1545 17.5912 65.6656 17.7943C65.1767 17.9973 64.7592 18.341 64.4662 18.7818C64.1731 19.2227 64.0177 19.7407 64.0196 20.27C64.0222 20.9729 64.302 21.6465 64.7981 22.1445C65.2942 22.6425 65.9667 22.9247 66.6696 22.93Z" stroke="#29406D" stroke-width="0.5" stroke-linecap="round" stroke-linejoin="round"/>
<path d="M66.6496 40.2701C67.1789 40.274 67.6975 40.1205 68.1394 39.8291C68.5814 39.5377 68.9267 39.1215 69.1315 38.6334C69.3364 38.1453 69.3916 37.6074 69.29 37.0878C69.1884 36.5683 68.9347 36.0907 68.5611 35.7157C68.1875 35.3407 67.7109 35.0852 67.1918 34.9817C66.6726 34.8782 66.1345 34.9313 65.6456 35.1343C65.1567 35.3373 64.7392 35.6811 64.4461 36.1219C64.1531 36.5627 63.9976 37.0807 63.9996 37.6101C64.0022 38.313 64.2819 38.9866 64.7781 39.4845C65.2742 39.9825 65.9467 40.2648 66.6496 40.2701V40.2701Z" stroke="#29406D" stroke-width="0.5" stroke-linecap="round" stroke-linejoin="round"/>
<path d="M66.6496 57.62C67.1785 57.624 67.6967 57.4708 68.1384 57.1798C68.5801 56.8889 68.9254 56.4733 69.1306 55.9857C69.3357 55.4982 69.3915 54.9608 69.2907 54.4415C69.19 53.9223 68.9373 53.4447 68.5647 53.0693C68.1921 52.6938 67.7164 52.4376 67.1979 52.3329C66.6794 52.2283 66.1416 52.2799 65.6525 52.4814C65.1635 52.6829 64.7453 53.0251 64.451 53.4646C64.1567 53.9041 63.9996 54.4211 63.9996 54.95C63.9996 55.6547 64.2781 56.3308 64.7745 56.831C65.2709 57.3311 65.9449 57.6148 66.6496 57.62V57.62Z" stroke="#29406D" stroke-width="0.5" stroke-linecap="round" stroke-linejoin="round"/>
<path d="M66.6696 74.9601C67.1985 74.9641 67.7167 74.8109 68.1584 74.5199C68.6001 74.2289 68.9454 73.8134 69.1506 73.3258C69.3558 72.8383 69.4115 72.3009 69.3107 71.7816C69.21 71.2624 68.9573 70.7848 68.5847 70.4093C68.2121 70.0339 67.7364 69.7776 67.2179 69.673C66.6995 69.5683 66.1616 69.62 65.6725 69.8215C65.1835 70.023 64.7653 70.3652 64.471 70.8047C64.1768 71.2442 64.0196 71.7612 64.0196 72.2901C64.0196 72.9948 64.2981 73.6709 64.7946 74.1711C65.291 74.6712 65.965 74.9549 66.6696 74.9601Z" stroke="#29406D" stroke-width="0.5" stroke-linecap="round" stroke-linejoin="round"/>
<path d="M50.3495 5.59C48.8749 5.59 47.6795 4.3946 47.6795 2.92C47.6795 1.4454 48.8749 0.25 50.3495 0.25C51.8241 0.25 53.0195 1.4454 53.0195 2.92C53.0195 4.3946 51.8241 5.59 50.3495 5.59Z" stroke="#29406D" stroke-width="0.5" stroke-linecap="round" stroke-linejoin="round"/>
<path d="M50.3496 22.93C50.8781 22.93 51.3947 22.7731 51.834 22.4793C52.2733 22.1855 52.6155 21.7679 52.8173 21.2794C53.019 20.791 53.0713 20.2536 52.9675 19.7354C52.8637 19.2172 52.6084 18.7415 52.234 18.3685C51.8596 17.9955 51.3829 17.742 50.8643 17.6401C50.3457 17.5382 49.8086 17.5925 49.3209 17.7961C48.8332 17.9997 48.4168 18.3435 48.1247 18.7839C47.8325 19.2243 47.6776 19.7415 47.6796 20.27C47.6822 20.9764 47.9647 21.653 48.4651 22.1515C48.9655 22.6501 49.6432 22.93 50.3496 22.93V22.93Z" stroke="#29406D" stroke-width="0.5" stroke-linecap="round" stroke-linejoin="round"/>
<path d="M50.3295 40.2801C48.8549 40.2801 47.6595 39.0847 47.6595 37.6101C47.6595 36.1355 48.8549 34.9401 50.3295 34.9401C51.8041 34.9401 52.9995 36.1355 52.9995 37.6101C52.9995 39.0847 51.8041 40.2801 50.3295 40.2801Z" stroke="#29406D" stroke-width="0.5" stroke-linecap="round" stroke-linejoin="round"/>
<path d="M50.3295 57.6201C48.8549 57.6201 47.6595 56.4247 47.6595 54.9501C47.6595 53.4755 48.8549 52.2801 50.3295 52.2801C51.8041 52.2801 52.9995 53.4755 52.9995 54.9501C52.9995 56.4247 51.8041 57.6201 50.3295 57.6201Z" stroke="#29406D" stroke-width="0.5" stroke-linecap="round" stroke-linejoin="round"/>
<path d="M34.0094 5.58C34.7158 5.58001 35.3935 5.30008 35.8939 4.80152C36.3943 4.30296 36.6768 3.6264 36.6794 2.92C36.6794 2.21188 36.3981 1.53275 35.8974 1.03203C35.3967 0.531306 34.7176 0.250004 34.0094 0.250004C33.6584 0.248682 33.3107 0.316841 32.9861 0.450553C32.6616 0.584265 32.3667 0.780885 32.1185 1.02908C31.8703 1.27728 31.6737 1.57214 31.54 1.89668C31.4063 2.22121 31.3381 2.569 31.3394 2.92C31.3394 3.27016 31.4086 3.61688 31.5429 3.94026C31.6772 4.26364 31.874 4.55732 32.1221 4.80445C32.3701 5.05159 32.6646 5.24731 32.9884 5.3804C33.3123 5.51349 33.6593 5.58132 34.0094 5.58V5.58Z" stroke="#29406D" stroke-width="0.5" stroke-linecap="round" stroke-linejoin="round"/>
<path d="M34.0095 22.93C34.538 22.93 35.0546 22.7731 35.4939 22.4793C35.9332 22.1855 36.2754 21.7679 36.4772 21.2794C36.679 20.791 36.7312 20.2536 36.6274 19.7354C36.5236 19.2172 36.2683 18.7415 35.8939 18.3685C35.5195 17.9955 35.0428 17.742 34.5242 17.6401C34.0056 17.5382 33.4684 17.5925 32.9807 17.7961C32.493 17.9997 32.0767 18.3435 31.7846 18.7839C31.4924 19.2243 31.3375 19.7415 31.3395 20.27C31.3421 20.9764 31.6246 21.653 32.125 22.1515C32.6255 22.6501 33.3031 22.93 34.0095 22.93V22.93Z" stroke="#29406D" stroke-width="0.5" stroke-linecap="round" stroke-linejoin="round"/>
<path d="M33.9894 40.2701C34.5179 40.2701 35.0345 40.1132 35.4738 39.8194C35.9131 39.5256 36.2554 39.108 36.4571 38.6195C36.6589 38.131 36.7112 37.5937 36.6074 37.0755C36.5035 36.5573 36.2483 36.0816 35.8739 35.7086C35.4995 35.3356 35.0228 35.0821 34.5042 34.9802C33.9856 34.8783 33.4484 34.9326 32.9607 35.1362C32.473 35.3398 32.0567 35.6836 31.7645 36.124C31.4724 36.5644 31.3175 37.0816 31.3194 37.6101C31.3221 38.3165 31.6046 38.993 32.105 39.4916C32.6054 39.9901 33.283 40.2701 33.9894 40.2701V40.2701Z" stroke="#29406D" stroke-width="0.5" stroke-linecap="round" stroke-linejoin="round"/>
<path d="M17.6593 5.58C18.0103 5.58264 18.3584 5.51579 18.6834 5.38329C19.0085 5.2508 19.304 5.05528 19.5532 4.80801C19.8023 4.56075 20 4.26662 20.135 3.94258C20.2699 3.61855 20.3393 3.27101 20.3393 2.92C20.3407 2.56985 20.2728 2.22288 20.1397 1.89899C20.0066 1.57511 19.8109 1.2807 19.5638 1.03263C19.3167 0.784568 19.023 0.587739 18.6996 0.453437C18.3762 0.319134 18.0295 0.250001 17.6793 0.250004C17.3283 0.248682 16.9806 0.316841 16.656 0.450553C16.3315 0.584265 16.0366 0.780885 15.7884 1.02908C15.5402 1.27728 15.3436 1.57214 15.2099 1.89668C15.0762 2.22121 15.008 2.569 15.0094 2.92C15.0093 3.62375 15.2882 4.29882 15.7849 4.79738C16.2816 5.29594 16.9556 5.57736 17.6593 5.58V5.58Z" stroke="#29406D" stroke-width="0.5" stroke-linecap="round" stroke-linejoin="round"/>
<path d="M17.6694 22.93C18.1979 22.93 18.7145 22.7731 19.1538 22.4793C19.5931 22.1855 19.9353 21.7679 20.1371 21.2794C20.3389 20.791 20.3911 20.2536 20.2873 19.7354C20.1835 19.2172 19.9282 18.7415 19.5538 18.3685C19.1794 17.9955 18.7027 17.742 18.1841 17.6401C17.6655 17.5382 17.1284 17.5925 16.6407 17.7961C16.153 17.9997 15.7367 18.3435 15.4445 18.7839C15.1523 19.2243 14.9974 19.7415 14.9994 20.27C14.9994 20.6202 15.0685 20.9669 15.2028 21.2903C15.3371 21.6136 15.5339 21.9073 15.782 22.1544C16.0301 22.4016 16.3245 22.5973 16.6484 22.7304C16.9722 22.8635 17.3192 22.9313 17.6694 22.93Z" stroke="#29406D" stroke-width="0.5" stroke-linecap="round" stroke-linejoin="round"/>
<path d="M1.34925 5.58C2.05473 5.58 2.73133 5.29975 3.23018 4.80091C3.72902 4.30206 4.00926 3.62548 4.00926 2.92C4.01057 2.56985 3.94276 2.22288 3.80967 1.89899C3.67659 1.57511 3.48085 1.2807 3.23372 1.03263C2.98658 0.784568 2.6929 0.587739 2.36952 0.453437C2.04614 0.319134 1.69941 0.250001 1.34925 0.250004C0.998255 0.248682 0.650476 0.316841 0.325939 0.450553C0.00140321 0.584265 -0.293448 0.780885 -0.541645 1.02908C-0.789841 1.27728 -0.986485 1.57214 -1.1202 1.89668C-1.25391 2.22121 -1.32205 2.569 -1.32073 2.92C-1.32073 3.27016 -1.2516 3.61688 -1.1173 3.94026C-0.982995 4.26364 -0.786169 4.55732 -0.538105 4.80445C-0.29004 5.05159 0.00437754 5.24731 0.328259 5.3804C0.65214 5.51349 0.999098 5.58132 1.34925 5.58V5.58Z" stroke="#29406D" stroke-width="0.5" stroke-linecap="round" stroke-linejoin="round"/>
</g>
<defs>
<clipPath id="clip0">
<rect width="118.61" height="125.32" fill="white" transform="matrix(-1 0 0 1 118.61 0)"/>
</clipPath>
</defs>
</svg>
