<svg width="119" height="126" viewBox="0 0 119 126" fill="none" xmlns="http://www.w3.org/2000/svg">
<g clip-path="url(#clip0)">
<path d="M2.92 5.59C4.3946 5.59 5.59 4.3946 5.59 2.92C5.59 1.4454 4.3946 0.25 2.92 0.25C1.4454 0.25 0.25 1.4454 0.25 2.92C0.25 4.3946 1.4454 5.59 2.92 5.59Z" stroke="#29406D" stroke-width="0.5" stroke-linecap="round" stroke-linejoin="round"/>
<path d="M2.89996 22.65C2.37146 22.65 1.85485 22.4931 1.41555 22.1993C0.976258 21.9055 0.634049 21.4879 0.43226 20.9994C0.230471 20.511 0.178187 19.9736 0.282022 19.4554C0.385858 18.9372 0.641135 18.4615 1.01554 18.0885C1.38995 17.7155 1.86663 17.462 2.38522 17.3601C2.9038 17.2582 3.44097 17.3125 3.92867 17.5161C4.41638 17.7197 4.83268 18.0635 5.12486 18.5039C5.41703 18.9443 5.57193 19.4615 5.56996 19.99C5.56731 20.6964 5.28484 21.373 4.7844 21.8715C4.28397 22.3701 3.60636 22.65 2.89996 22.65Z" stroke="#29406D" stroke-width="0.5" stroke-linecap="round" stroke-linejoin="round"/>
<path d="M2.92 39.73C4.3946 39.73 5.59 38.5346 5.59 37.06C5.59 35.5854 4.3946 34.39 2.92 34.39C1.4454 34.39 0.25 35.5854 0.25 37.06C0.25 38.5346 1.4454 39.73 2.92 39.73Z" stroke="#29406D" stroke-width="0.5" stroke-linecap="round" stroke-linejoin="round"/>
<path d="M2.92 56.79C4.3946 56.79 5.59 55.5946 5.59 54.12C5.59 52.6454 4.3946 51.45 2.92 51.45C1.4454 51.45 0.25 52.6454 0.25 54.12C0.25 55.5946 1.4454 56.79 2.92 56.79Z" stroke="#29406D" stroke-width="0.5" stroke-linecap="round" stroke-linejoin="round"/>
<path d="M2.89998 73.86C2.3719 73.86 1.85569 73.7034 1.41661 73.41C0.977534 73.1166 0.635316 72.6996 0.43323 72.2118C0.231144 71.7239 0.17826 71.187 0.281283 70.6691C0.384305 70.1512 0.638605 69.6754 1.01201 69.302C1.38542 68.9286 1.86116 68.6743 2.37909 68.5713C2.89702 68.4683 3.43386 68.5211 3.92174 68.7232C4.40962 68.9253 4.82661 69.2675 5.12 69.7066C5.41338 70.1457 5.56998 70.6619 5.56998 71.19C5.56998 71.8981 5.28867 72.5772 4.78795 73.078C4.28723 73.5787 3.60811 73.86 2.89998 73.86Z" stroke="#29406D" stroke-width="0.5" stroke-linecap="round" stroke-linejoin="round"/>
<path d="M2.92 90.93C4.3946 90.93 5.59 89.7346 5.59 88.26C5.59 86.7854 4.3946 85.59 2.92 85.59C1.4454 85.59 0.25 86.7854 0.25 88.26C0.25 89.7346 1.4454 90.93 2.92 90.93Z" stroke="#29406D" stroke-width="0.5" stroke-linecap="round" stroke-linejoin="round"/>
<path d="M2.89998 108C2.3719 108 1.85569 107.843 1.41661 107.55C0.977534 107.257 0.635316 106.84 0.43323 106.352C0.231144 105.864 0.17826 105.327 0.281283 104.809C0.384305 104.291 0.638605 103.815 1.01201 103.442C1.38542 103.069 1.86116 102.814 2.37909 102.711C2.89702 102.608 3.43386 102.661 3.92174 102.863C4.40962 103.065 4.82661 103.408 5.12 103.847C5.41338 104.286 5.56998 104.802 5.56998 105.33C5.56998 106.038 5.28867 106.717 4.78795 107.218C4.28723 107.719 3.60811 108 2.89998 108Z" stroke="#29406D" stroke-width="0.5" stroke-linecap="round" stroke-linejoin="round"/>
<path d="M2.89998 125.07C2.3719 125.07 1.85569 124.913 1.41661 124.62C0.977534 124.327 0.635316 123.91 0.43323 123.422C0.231144 122.934 0.17826 122.397 0.281283 121.879C0.384305 121.361 0.638605 120.885 1.01201 120.512C1.38542 120.139 1.86116 119.884 2.37909 119.781C2.89702 119.678 3.43386 119.731 3.92174 119.933C4.40962 120.135 4.82661 120.478 5.12 120.917C5.41338 121.356 5.56998 121.872 5.56998 122.4C5.56734 123.107 5.2852 123.785 4.78505 124.285C4.2849 124.785 3.6073 125.067 2.89998 125.07V125.07Z" stroke="#29406D" stroke-width="0.5" stroke-linecap="round" stroke-linejoin="round"/>
<path d="M19.0301 5.58C18.3237 5.58 17.6461 5.30008 17.1457 4.80151C16.6452 4.30295 16.3628 3.62639 16.3601 2.92C16.3601 2.21187 16.6414 1.53275 17.1422 1.03202C17.6429 0.531303 18.322 0.25 19.0301 0.25C19.7382 0.25 20.4174 0.531303 20.9181 1.03202C21.4188 1.53275 21.7001 2.21187 21.7001 2.92C21.6975 3.62639 21.415 4.30295 20.9146 4.80151C20.4141 5.30008 19.7365 5.58 19.0301 5.58V5.58Z" stroke="#29406D" stroke-width="0.5" stroke-linecap="round" stroke-linejoin="round"/>
<path d="M19.0301 22.65C18.5016 22.65 17.985 22.4931 17.5457 22.1993C17.1064 21.9055 16.7642 21.4879 16.5624 20.9994C16.3606 20.511 16.3083 19.9736 16.4121 19.4554C16.516 18.9372 16.7713 18.4615 17.1457 18.0885C17.5201 17.7155 17.9968 17.462 18.5154 17.3601C19.0339 17.2582 19.5711 17.3125 20.0588 17.5161C20.5465 17.7197 20.9628 18.0635 21.255 18.5039C21.5472 18.9443 21.7021 19.4615 21.7001 19.99C21.6974 20.6964 21.415 21.373 20.9145 21.8715C20.4141 22.3701 19.7365 22.65 19.0301 22.65V22.65Z" stroke="#29406D" stroke-width="0.5" stroke-linecap="round" stroke-linejoin="round"/>
<path d="M19.0301 39.72C18.5016 39.72 17.985 39.5632 17.5457 39.2693C17.1064 38.9755 16.7642 38.5579 16.5624 38.0694C16.3606 37.581 16.3083 37.0436 16.4121 36.5254C16.516 36.0072 16.7713 35.5315 17.1457 35.1585C17.5201 34.7855 17.9968 34.532 18.5154 34.4301C19.0339 34.3282 19.5711 34.3825 20.0588 34.5861C20.5465 34.7897 20.9628 35.1335 21.255 35.5739C21.5472 36.0143 21.7021 36.5315 21.7001 37.06C21.6974 37.7664 21.415 38.443 20.9145 38.9415C20.4141 39.4401 19.7365 39.72 19.0301 39.72V39.72Z" stroke="#29406D" stroke-width="0.5" stroke-linecap="round" stroke-linejoin="round"/>
<path d="M19.0301 56.79C18.502 56.79 17.9858 56.6334 17.5468 56.34C17.1077 56.0467 16.7654 55.6297 16.5634 55.1418C16.3613 54.6539 16.3084 54.1171 16.4114 53.5991C16.5144 53.0812 16.7687 52.6054 17.1422 52.232C17.5156 51.8586 17.9913 51.6043 18.5092 51.5013C19.0271 51.3983 19.564 51.4512 20.0519 51.6533C20.5398 51.8553 20.9568 52.1976 21.2502 52.6366C21.5435 53.0757 21.7001 53.5919 21.7001 54.12C21.7001 54.8281 21.4188 55.5073 20.9181 56.008C20.4174 56.5087 19.7383 56.79 19.0301 56.79Z" stroke="#29406D" stroke-width="0.5" stroke-linecap="round" stroke-linejoin="round"/>
<path d="M19.0301 73.86C18.502 73.86 17.9858 73.7034 17.5468 73.41C17.1077 73.1166 16.7654 72.6996 16.5634 72.2118C16.3613 71.7239 16.3084 71.187 16.4114 70.6691C16.5144 70.1512 16.7687 69.6754 17.1422 69.302C17.5156 68.9286 17.9913 68.6743 18.5092 68.5713C19.0271 68.4683 19.564 68.5211 20.0519 68.7232C20.5398 68.9253 20.9568 69.2675 21.2502 69.7066C21.5435 70.1457 21.7001 70.6619 21.7001 71.19C21.7001 71.8981 21.4188 72.5772 20.9181 73.078C20.4174 73.5787 19.7383 73.86 19.0301 73.86Z" stroke="#29406D" stroke-width="0.5" stroke-linecap="round" stroke-linejoin="round"/>
<path d="M19.0301 90.93C18.502 90.93 17.9858 90.7734 17.5468 90.48C17.1077 90.1866 16.7654 89.7696 16.5634 89.2818C16.3613 88.7939 16.3084 88.257 16.4114 87.7391C16.5144 87.2212 16.7687 86.7454 17.1422 86.372C17.5156 85.9986 17.9913 85.7443 18.5092 85.6413C19.0271 85.5383 19.564 85.5912 20.0519 85.7932C20.5398 85.9953 20.9568 86.3375 21.2502 86.7766C21.5435 87.2157 21.7001 87.7319 21.7001 88.26C21.7001 88.9681 21.4188 89.6473 20.9181 90.148C20.4174 90.6487 19.7383 90.93 19.0301 90.93Z" stroke="#29406D" stroke-width="0.5" stroke-linecap="round" stroke-linejoin="round"/>
<path d="M19.0301 108C18.502 108 17.9858 107.843 17.5468 107.55C17.1077 107.257 16.7654 106.84 16.5634 106.352C16.3613 105.864 16.3084 105.327 16.4114 104.809C16.5144 104.291 16.7687 103.815 17.1422 103.442C17.5156 103.069 17.9913 102.814 18.5092 102.711C19.0271 102.608 19.564 102.661 20.0519 102.863C20.5398 103.065 20.9568 103.408 21.2502 103.847C21.5435 104.286 21.7001 104.802 21.7001 105.33C21.7001 106.038 21.4188 106.717 20.9181 107.218C20.4174 107.719 19.7383 108 19.0301 108Z" stroke="#29406D" stroke-width="0.5" stroke-linecap="round" stroke-linejoin="round"/>
<path d="M35.14 5.59C36.6146 5.59 37.81 4.3946 37.81 2.92C37.81 1.4454 36.6146 0.25 35.14 0.25C33.6654 0.25 32.47 1.4454 32.47 2.92C32.47 4.3946 33.6654 5.59 35.14 5.59Z" stroke="#29406D" stroke-width="0.5" stroke-linecap="round" stroke-linejoin="round"/>
<path d="M35.1399 22.65C34.6114 22.65 34.0948 22.4931 33.6555 22.1993C33.2162 21.9055 32.874 21.4879 32.6723 20.9994C32.4705 20.511 32.4182 19.9736 32.522 19.4554C32.6258 18.9372 32.8811 18.4615 33.2555 18.0885C33.6299 17.7155 34.1066 17.462 34.6252 17.3601C35.1438 17.2582 35.6809 17.3125 36.1686 17.5161C36.6564 17.7197 37.0727 18.0635 37.3648 18.5039C37.657 18.9443 37.8119 19.4615 37.8099 19.99C37.8073 20.6964 37.5248 21.373 37.0244 21.8715C36.524 22.3701 35.8463 22.65 35.1399 22.65V22.65Z" stroke="#29406D" stroke-width="0.5" stroke-linecap="round" stroke-linejoin="round"/>
<path d="M35.14 39.73C36.6146 39.73 37.81 38.5346 37.81 37.06C37.81 35.5854 36.6146 34.39 35.14 34.39C33.6654 34.39 32.47 35.5854 32.47 37.06C32.47 38.5346 33.6654 39.73 35.14 39.73Z" stroke="#29406D" stroke-width="0.5" stroke-linecap="round" stroke-linejoin="round"/>
<path d="M35.14 56.79C36.6146 56.79 37.81 55.5946 37.81 54.12C37.81 52.6454 36.6146 51.45 35.14 51.45C33.6654 51.45 32.47 52.6454 32.47 54.12C32.47 55.5946 33.6654 56.79 35.14 56.79Z" stroke="#29406D" stroke-width="0.5" stroke-linecap="round" stroke-linejoin="round"/>
<path d="M35.14 73.86C34.6119 73.86 34.0957 73.7034 33.6566 73.41C33.2175 73.1166 32.8753 72.6996 32.6732 72.2118C32.4711 71.7239 32.4183 71.187 32.5213 70.6691C32.6243 70.1512 32.8786 69.6754 33.252 69.302C33.6254 68.9286 34.1012 68.6743 34.6191 68.5713C35.137 68.4683 35.6739 68.5211 36.1617 68.7232C36.6496 68.9253 37.0666 69.2675 37.36 69.7066C37.6534 70.1457 37.81 70.6619 37.81 71.19C37.81 71.8981 37.5286 72.5772 37.0279 73.078C36.5272 73.5787 35.8481 73.86 35.14 73.86Z" stroke="#29406D" stroke-width="0.5" stroke-linecap="round" stroke-linejoin="round"/>
<path d="M35.14 90.93C36.6146 90.93 37.81 89.7346 37.81 88.26C37.81 86.7854 36.6146 85.59 35.14 85.59C33.6654 85.59 32.47 86.7854 32.47 88.26C32.47 89.7346 33.6654 90.93 35.14 90.93Z" stroke="#29406D" stroke-width="0.5" stroke-linecap="round" stroke-linejoin="round"/>
<path d="M51.2501 5.58C50.5437 5.58 49.8661 5.30008 49.3656 4.80151C48.8652 4.30295 48.5827 3.62639 48.5801 2.92C48.5801 2.21187 48.8614 1.53275 49.3621 1.03202C49.8628 0.531303 50.542 0.25 51.2501 0.25C51.9547 0.255278 52.6287 0.53891 53.1252 1.03906C53.6216 1.53921 53.9001 2.21532 53.9001 2.92C53.8975 3.62294 53.6178 4.2965 53.1216 4.79449C52.6255 5.29249 51.953 5.57474 51.2501 5.58V5.58Z" stroke="#29406D" stroke-width="0.5" stroke-linecap="round" stroke-linejoin="round"/>
<path d="M51.25 22.65C50.7207 22.654 50.2021 22.5005 49.7602 22.2091C49.3183 21.9177 48.973 21.5015 48.7681 21.0134C48.5633 20.5253 48.5081 19.9873 48.6097 19.4678C48.7112 18.9483 48.9649 18.4707 49.3385 18.0957C49.7121 17.7206 50.1888 17.4652 50.7079 17.3616C51.227 17.2581 51.7652 17.3112 52.2541 17.5143C52.7429 17.7173 53.1604 18.061 53.4535 18.5019C53.7466 18.9427 53.902 19.4607 53.9 19.99C53.8974 20.6929 53.6177 21.3665 53.1216 21.8645C52.6255 22.3625 51.953 22.6447 51.25 22.65Z" stroke="#29406D" stroke-width="0.5" stroke-linecap="round" stroke-linejoin="round"/>
<path d="M51.25 39.72C50.7207 39.724 50.2021 39.5705 49.7602 39.2791C49.3183 38.9877 48.973 38.5715 48.7681 38.0834C48.5633 37.5953 48.5081 37.0573 48.6097 36.5378C48.7112 36.0183 48.9649 35.5407 49.3385 35.1657C49.7121 34.7906 50.1888 34.5351 50.7079 34.4316C51.227 34.3281 51.7652 34.3812 52.2541 34.5842C52.7429 34.7873 53.1604 35.131 53.4535 35.5718C53.7466 36.0127 53.902 36.5306 53.9 37.06C53.8974 37.7629 53.6177 38.4365 53.1216 38.9345C52.6255 39.4325 51.953 39.7147 51.25 39.72V39.72Z" stroke="#29406D" stroke-width="0.5" stroke-linecap="round" stroke-linejoin="round"/>
<path d="M51.2501 56.79C50.7212 56.794 50.203 56.6407 49.7613 56.3498C49.3196 56.0588 48.9742 55.6432 48.7691 55.1557C48.5639 54.6682 48.5082 54.1307 48.609 53.6115C48.7097 53.0922 48.9624 52.6146 49.335 52.2392C49.7076 51.8638 50.1833 51.6075 50.7018 51.5029C51.2202 51.3982 51.7581 51.4499 52.2471 51.6514C52.7362 51.8529 53.1544 52.1951 53.4486 52.6346C53.7429 53.0741 53.9 53.5911 53.9001 54.12C53.9001 54.8247 53.6215 55.5008 53.1251 56.0009C52.6287 56.5011 51.9547 56.7847 51.2501 56.79V56.79Z" stroke="#29406D" stroke-width="0.5" stroke-linecap="round" stroke-linejoin="round"/>
<path d="M51.2501 73.86C50.7212 73.864 50.203 73.7107 49.7613 73.4198C49.3196 73.1288 48.9742 72.7132 48.7691 72.2257C48.5639 71.7382 48.5082 71.2007 48.609 70.6815C48.7097 70.1622 48.9624 69.6846 49.335 69.3092C49.7076 68.9338 50.1833 68.6775 50.7018 68.5729C51.2202 68.4682 51.7581 68.5199 52.2471 68.7214C52.7362 68.9229 53.1544 69.2651 53.4486 69.7046C53.7429 70.1441 53.9 70.6611 53.9001 71.19C53.9001 71.8947 53.6215 72.5708 53.1251 73.0709C52.6287 73.5711 51.9547 73.8547 51.2501 73.86Z" stroke="#29406D" stroke-width="0.5" stroke-linecap="round" stroke-linejoin="round"/>
<path d="M67.3599 5.59C68.8345 5.59 70.0299 4.3946 70.0299 2.92C70.0299 1.4454 68.8345 0.25 67.3599 0.25C65.8853 0.25 64.6899 1.4454 64.6899 2.92C64.6899 4.3946 65.8853 5.59 67.3599 5.59Z" stroke="#29406D" stroke-width="0.5" stroke-linecap="round" stroke-linejoin="round"/>
<path d="M67.3599 22.65C66.8314 22.65 66.3148 22.4931 65.8755 22.1993C65.4362 21.9055 65.094 21.4879 64.8922 20.9994C64.6904 20.511 64.6381 19.9736 64.742 19.4554C64.8458 18.9372 65.1011 18.4615 65.4755 18.0885C65.8499 17.7155 66.3266 17.462 66.8452 17.3601C67.3637 17.2582 67.9009 17.3125 68.3886 17.5161C68.8763 17.7197 69.2926 18.0635 69.5848 18.5039C69.877 18.9443 70.0319 19.4615 70.0299 19.99C70.0273 20.6964 69.7448 21.373 69.2444 21.8715C68.7439 22.3701 68.0663 22.65 67.3599 22.65V22.65Z" stroke="#29406D" stroke-width="0.5" stroke-linecap="round" stroke-linejoin="round"/>
<path d="M67.3599 39.73C68.8345 39.73 70.0299 38.5346 70.0299 37.06C70.0299 35.5854 68.8345 34.39 67.3599 34.39C65.8853 34.39 64.6899 35.5854 64.6899 37.06C64.6899 38.5346 65.8853 39.73 67.3599 39.73Z" stroke="#29406D" stroke-width="0.5" stroke-linecap="round" stroke-linejoin="round"/>
<path d="M67.3599 56.79C68.8345 56.79 70.0299 55.5946 70.0299 54.12C70.0299 52.6454 68.8345 51.45 67.3599 51.45C65.8853 51.45 64.6899 52.6454 64.6899 54.12C64.6899 55.5946 65.8853 56.79 67.3599 56.79Z" stroke="#29406D" stroke-width="0.5" stroke-linecap="round" stroke-linejoin="round"/>
<path d="M83.4701 5.58C82.7637 5.58001 82.086 5.30008 81.5856 4.80152C81.0852 4.30296 80.8027 3.6264 80.8 2.92C80.8 2.21188 81.0814 1.53275 81.5821 1.03203C82.0828 0.531306 82.7619 0.250004 83.4701 0.250004C83.8211 0.248682 84.1688 0.316841 84.4934 0.450553C84.8179 0.584265 85.1128 0.780885 85.361 1.02908C85.6092 1.27728 85.8058 1.57214 85.9395 1.89668C86.0732 2.22121 86.1414 2.569 86.14 2.92C86.14 3.27016 86.0709 3.61688 85.9366 3.94026C85.8023 4.26364 85.6055 4.55732 85.3574 4.80445C85.1094 5.05159 84.8149 5.24731 84.4911 5.3804C84.1672 5.51349 83.8202 5.58132 83.4701 5.58V5.58Z" stroke="#29406D" stroke-width="0.5" stroke-linecap="round" stroke-linejoin="round"/>
<path d="M83.47 22.65C82.9415 22.65 82.4249 22.4931 81.9856 22.1993C81.5463 21.9055 81.2041 21.4879 81.0023 20.9994C80.8005 20.511 80.7483 19.9736 80.8521 19.4554C80.9559 18.9372 81.2112 18.4615 81.5856 18.0885C81.96 17.7155 82.4367 17.462 82.9553 17.3601C83.4739 17.2582 84.0111 17.3125 84.4988 17.5161C84.9865 17.7197 85.4027 18.0635 85.6949 18.5039C85.9871 18.9443 86.142 19.4615 86.14 19.99C86.1374 20.6964 85.8549 21.373 85.3545 21.8715C84.854 22.3701 84.1764 22.65 83.47 22.65V22.65Z" stroke="#29406D" stroke-width="0.5" stroke-linecap="round" stroke-linejoin="round"/>
<path d="M83.47 39.72C82.9415 39.72 82.4249 39.5632 81.9856 39.2693C81.5463 38.9755 81.2041 38.5579 81.0023 38.0694C80.8005 37.581 80.7483 37.0436 80.8521 36.5254C80.9559 36.0072 81.2112 35.5315 81.5856 35.1585C81.96 34.7855 82.4367 34.532 82.9553 34.4301C83.4739 34.3282 84.0111 34.3825 84.4988 34.5861C84.9865 34.7897 85.4027 35.1335 85.6949 35.5739C85.9871 36.0143 86.142 36.5315 86.14 37.06C86.1374 37.7664 85.8549 38.443 85.3545 38.9415C84.854 39.4401 84.1764 39.72 83.47 39.72V39.72Z" stroke="#29406D" stroke-width="0.5" stroke-linecap="round" stroke-linejoin="round"/>
<path d="M99.5799 5.58C99.2289 5.58264 98.8809 5.51579 98.5558 5.38329C98.2308 5.2508 97.9352 5.05528 97.6861 4.80801C97.437 4.56075 97.2392 4.26662 97.1043 3.94258C96.9694 3.61855 96.8999 3.27101 96.8999 2.92C96.8986 2.56985 96.9664 2.22288 97.0995 1.89899C97.2326 1.57511 97.4283 1.2807 97.6755 1.03263C97.9226 0.784568 98.2163 0.587739 98.5397 0.453437C98.863 0.319134 99.2098 0.250001 99.5599 0.250004C99.9109 0.248682 100.259 0.316841 100.583 0.450553C100.908 0.584265 101.203 0.780885 101.451 1.02908C101.699 1.27728 101.896 1.57214 102.029 1.89668C102.163 2.22121 102.231 2.569 102.23 2.92C102.23 3.62375 101.951 4.29882 101.454 4.79738C100.958 5.29594 100.284 5.57736 99.5799 5.58V5.58Z" stroke="#29406D" stroke-width="0.5" stroke-linecap="round" stroke-linejoin="round"/>
<path d="M99.5801 22.65C99.0516 22.65 98.535 22.4931 98.0957 22.1993C97.6564 21.9055 97.3142 21.4879 97.1124 20.9994C96.9106 20.511 96.8584 19.9736 96.9622 19.4554C97.066 18.9372 97.3213 18.4615 97.6957 18.0885C98.0701 17.7155 98.5468 17.462 99.0654 17.3601C99.584 17.2582 100.121 17.3125 100.609 17.5161C101.097 17.7197 101.513 18.0635 101.805 18.5039C102.097 18.9443 102.252 19.4615 102.25 19.99C102.25 20.3402 102.181 20.6869 102.047 21.0103C101.912 21.3336 101.716 21.6273 101.468 21.8744C101.219 22.1216 100.925 22.3173 100.601 22.4504C100.277 22.5835 99.9303 22.6513 99.5801 22.65Z" stroke="#29406D" stroke-width="0.5" stroke-linecap="round" stroke-linejoin="round"/>
<path d="M115.69 5.58C114.985 5.58 114.308 5.29975 113.809 4.80091C113.31 4.30206 113.03 3.62548 113.03 2.92C113.029 2.56985 113.097 2.22288 113.23 1.89899C113.363 1.57511 113.558 1.2807 113.806 1.03263C114.053 0.784568 114.346 0.587739 114.67 0.453437C114.993 0.319134 115.34 0.250001 115.69 0.250004C116.041 0.248682 116.389 0.316841 116.713 0.450553C117.038 0.584265 117.333 0.780885 117.581 1.02908C117.829 1.27728 118.026 1.57214 118.16 1.89668C118.293 2.22121 118.361 2.569 118.36 2.92C118.36 3.27016 118.291 3.61688 118.157 3.94026C118.022 4.26364 117.825 4.55732 117.577 4.80445C117.329 5.05159 117.035 5.24731 116.711 5.3804C116.387 5.51349 116.04 5.58132 115.69 5.58V5.58Z" stroke="#29406D" stroke-width="0.5" stroke-linecap="round" stroke-linejoin="round"/>
</g>
<defs>
<clipPath id="clip0">
<rect width="118.61" height="125.32" fill="white"/>
</clipPath>
</defs>
</svg>
